# xmcd CD database file
#
# Track frame offsets:
#	150
#	13135
#	24642
#	38055
#	51740
#	64760
#	75510
#	87480
#	100440
#	113242
#	125110
#	138762
#	150797
#	162387
#	175455
#	189000
#	200457
#	212570
#	223977
#	235330
#
# Disc length: 3296 seconds
#
# Revision: 8
# Processed by: cddbd v1.5.2PL0 Copyright (c) Steve Scherf et al.
# Submitted via: CDex 1.70beta2
#
DISCID=1c0cde14
DTITLE=Robert Johnson - The Complete Recordings [CD1]
DYEAR=1990
DGENRE=Country Blues
TTITLE0=Kindhearted Woman Blues [Take 1]
TTITLE1=Kindhearted Woman Blues [Take 2]
TTITLE2=I Believe I'll Dust My Broom
TTITLE3=Sweet Home Chicago
TTITLE4=Rambling On My Mind [Take 1]
TTITLE5=Rambling On My Mind [Take 2]
TTITLE6=When You Got A Good Friend [Take 1]
TTITLE7=When You Got A Good Friend [Take 2]
TTITLE8=Come On In My Kitchen [Take 1]
TTITLE9=Come On In My Kitchen [Take 2]
TTITLE10=Terraplane Blues
TTITLE11=Phonograph Blues [Take 1]
TTITLE12=Phonograph Blues [Take 2]
TTITLE13=32-20 Blues
TTITLE14=They're Red Hot
TTITLE15=Dead Shrimp Blues
TTITLE16=Cross Road Blues [Take 1]
TTITLE17=Cross Road Blues [Take 2]
TTITLE18=Walking Blues
TTITLE19=Last Fair Deal Gone Down
EXTD=All songs by Robert Johnson.\nRobert Leroy Johnson (1911/1938): vocals, guitar\nRecorded at the Gunter Hotel, San Antonio US-TX, 1936-11-23 [CD1:tracks 1-13), 1936-11-26 (1:14), and 1936-11-27 (1:15-20, 2:1-2) - and at the Brunswick Record Building,
EXTD=508 Park Ave, Dallas US-TX, 1937-06-19 (2:3-5) and 1937-06-20 (2:6-21).\nOriginal recordings produced by Don Law (1902/1982).\nReissue producers: Stephen LaVere and Frank Driggs\nDigital restoration and engineering: Frank Abbey\nMastered by Vlado Mel
EXTD=ler.\nNote: All tracks are first takes (master/matrix numbers ending "-1"), unless otherwise noted.\n2CD: Columbia C2K 46222 (1990-08-20), UPC 074644622225. YEAR: 1990
EXTT0=(Robert Johnson]\nRecorded San Antonio US-TX, 1936-11-23 (mx SA 2580-1) - Vocalion 03416, ARC 7-03-56.
EXTT1=(Robert Johnson]\nRecorded San Antonio US-TX, 1936-11-23 (mx SA 2580-2) - Vocalion 03416, ARC 7-03-56.
EXTT2=(Robert Johnson]\nRecorded San Antonio US-TX, 1936-11-23 (mx SA 2581-1) - Vocalion 03475, ARC 7-04-81, Conqueror 8871.
EXTT3=(Robert Johnson]\nRecorded San Antonio US-TX, 1936-11-23 (mx SA 2582-1) - Vocalion 03601.
EXTT4=(Robert Johnson]\nRecorded San Antonio US-TX, 1936-11-23 (mx SA 2583-1) - Vocalion 03519, ARC 7-05-81.
EXTT5=(Robert Johnson]\nRecorded San Antonio US-TX, 1936-11-23 (mx SA 2583-2) - Vocalion 03519, ARC 7-05-81.
EXTT6=(Robert Johnson]\nRecorded San Antonio US-TX, 1936-11-23 (mx SA 2584-1) - unissued on 78rpm.
EXTT7=(Robert Johnson]\nRecorded San Antonio US-TX, 1936-11-23 (mx SA 2584-2) - unissued on 78rpm.
EXTT8=(Robert Johnson]\nRecorded San Antonio US-TX, 1936-11-23 (mx SA 2585-1) - unissued on 78rpm.
EXTT9=(Robert Johnson]\nRecorded San Antonio US-TX, 1936-11-23 (mx SA 2585-2) - Vocalion 03563, ARC 7-07-57.
EXTT10=(Robert Johnson]\nRecorded San Antonio US-TX, 1936-11-23 (mx SA 2586-1) - Vocalion 03416, ARC 7-03-56.
EXTT11=(Robert Johnson]\nRecorded San Antonio US-TX, 1936-11-23 (mx SA 2587-1) - unissued on 78rpm.
EXTT12=(Robert Johnson]\nRecorded San Antonio US-TX, 1936-11-23 (mx SA 2587-2) - unissued on 78rpm.
EXTT13=(Robert Johnson]\nRecorded San Antonio US-TX, 1936-11-26 (mx SA 2616-2) - Vocalion 03445, ARC 7-04-60.
EXTT14=(Robert Johnson]\nRecorded San Antonio US-TX, 1936-11-27 (mx SA 2627-1) - Vocalion 03563, ARC 7-07-57.
EXTT15=(Robert Johnson]\nRecorded San Antonio US-TX, 1936-11-27 (mx SA 2628-2) - Vocalion 03475, ARC 7-04-81, Conqueror 8871.
EXTT16=(Robert Johnson]\nRecorded San Antonio US-TX, 1936-11-27 (mx SA 2629-1) - Vocalion 03519, ARC 7-05-81.
EXTT17=(Robert Johnson]\nRecorded San Antonio US-TX, 1936-11-27 (mx SA 2629-2) - unissued on 78rpm.
EXTT18=(Robert Johnson]\nRecorded San Antonio US-TX, 1936-11-27 (mx SA 2630-1) - Vocalion 03601.
EXTT19=(Robert Johnson]\nRecorded San Antonio US-TX, 1936-11-27 (mx SA 2631-1) - Vocalion 03445, ARC 7-04-60.
PLAYORDER=
